<mxfile host="app.diagrams.net" modified="2024-02-05T10:24:30.478Z" agent="Mozilla/5.0 (Windows NT 10.0; Win64; x64) AppleWebKit/537.36 (KHTML, like Gecko) Chrome/121.0.0.0 Safari/537.36" version="23.1.1" etag="LDJ8zKRcWsnsOdbMWF-0" type="github">
  <diagram name="Sayfa -1" id="M0qdnNqTZr1DnavEJiqo">
    <mxGraphModel>
      <root>
        <mxCell id="0" />
        <mxCell id="1" parent="0" />
      </root>
    </mxGraphModel>
  </diagram>
</mxfile>
